<svg height="512" viewBox="0 0 512 512" width="512" xmlns="http://www.w3.org/2000/svg" xmlns:xlink="http://www.w3.org/1999/xlink"><clipPath id="a"><path d="m250 0h500v500h-500z"/></clipPath><g clip-path="url(#a)" transform="matrix(1.024 0 0 1.024 -256 0)"><g stroke-width="1pt"><path d="m0 0h1000.02v500.01h-1000.02z" fill="#006"/><path d="m0 0v55.903l888.218 444.11h111.802v-55.903l-888.218-444.107h-111.802zm1000.02 0v55.9l-888.218 444.11h-111.802v-55.9l888.218-444.11z" fill="#fff"/><path d="m416.675 0v500.01h166.67v-500.01zm-416.675 166.67v166.67h1000.02v-166.67z" fill="#fff"/><path d="m0 200.004v100.002h1000.02v-100.002zm450.01-200.004v500.01h100v-500.01zm-450.01 500.01 333.34-166.67h74.535l-333.34 166.67zm0-500.01 333.34 166.67h-74.535l-258.805-129.4zm592.145 166.67 333.34-166.67h74.535l-333.34 166.67zm407.875 333.34-333.34-166.67h74.535l258.805 129.403z" fill="#c00"/></g></g></svg>