<svg height="512" viewBox="0 0 512 512" width="512" xmlns="http://www.w3.org/2000/svg" xmlns:xlink="http://www.w3.org/1999/xlink"><clipPath id="a"><path d="m185.98 0h496.06v496.06h-496.06z"/></clipPath><g clip-path="url(#a)" fill-rule="evenodd" transform="matrix(1.0321 0 0 1.0321 -191.96 0)"><path d="m0 0h868.11v496.06h-868.11z" fill="#fff"/><path d="m0 333.13h868.11v162.93h-868.11z" fill="#da0000"/><g fill="#fff" stroke-width="1pt"><path d="m165.025 340.035h47.543v3.271h-47.543zm7.089 16.358h3.271v3.177h-3.271zm40.577-.103v3.271h-9.5v-3.271zm5.111-16.255h3.272v19.532h-3.272z"/><path d="m236.728 356.29v3.271h-18.006v-3.271zm-33.538-7.642h3.272v10.92h-3.272z"/><path d="m234.05 340.035h3.272v19.532h-3.272zm-8.18 0h3.273v19.532h-3.272zm-43.404 7.774v3.271h-17.352v-3.271zm38.076 0v3.271h-17.352v-3.271z"/><path d="m203.19 348.648h3.272v10.92h-3.272z"/><path d="m203.19 348.648h3.272v10.92h-3.272z"/><path d="m203.19 348.648h3.272v10.92h-3.272zm-38.076 0h3.271v10.92h-3.271zm27.909 0h3.272v10.92h-3.272zm-13.827 0h3.272v10.92h-3.272z"/><path d="m195.319 356.29v3.271h-14.669v-3.271zm.976-8.481v3.271h-9.3v-3.271z"/></g><g fill="#fff" stroke-width="1pt"><path d="m86.94 340.035h47.543v3.271h-47.543zm7.089 16.358h3.271v3.177h-3.27zm40.577-.103v3.271h-9.5v-3.271zm5.111-16.255h3.272v19.532h-3.272z"/><path d="m158.643 356.29v3.271h-18.006v-3.271zm-33.538-7.642h3.272v10.92h-3.272z"/><path d="m155.965 340.035h3.272v19.532h-3.272zm-8.179 0h3.272v19.532h-3.272zm-43.405 7.774v3.271h-17.351v-3.271zm38.076 0v3.271h-17.352v-3.271z"/><path d="m125.105 348.648h3.272v10.92h-3.272z"/><path d="m125.105 348.648h3.272v10.92h-3.272z"/><path d="m125.105 348.648h3.272v10.92h-3.272zm-38.076 0h3.271v10.92h-3.27zm27.909 0h3.272v10.92h-3.272zm-13.828 0h3.273v10.92h-3.272z"/><path d="m117.234 356.29v3.271h-14.668v-3.271zm.976-8.481v3.271h-9.3v-3.271z"/></g><g fill="#fff" stroke-width="1pt"><path d="m242.465 340.035h47.543v3.271h-47.543zm7.089 16.358h3.271v3.177h-3.271zm40.577-.103v3.271h-9.5v-3.271zm5.111-16.255h3.272v19.532h-3.272z"/><path d="m314.168 356.29v3.271h-18.006v-3.271zm-33.538-7.642h3.272v10.92h-3.272z"/><path d="m311.49 340.035h3.272v19.532h-3.272zm-8.18 0h3.273v19.532h-3.272zm-43.404 7.774v3.271h-17.352v-3.271zm38.076 0v3.271h-17.352v-3.271z"/><path d="m280.63 348.648h3.272v10.92h-3.272z"/><path d="m280.63 348.648h3.272v10.92h-3.272z"/><path d="m280.63 348.648h3.272v10.92h-3.272zm-38.076 0h3.271v10.92h-3.271zm27.909 0h3.272v10.92h-3.272zm-13.827 0h3.272v10.92h-3.272z"/><path d="m272.759 356.29v3.271h-14.669v-3.271zm.976-8.481v3.271h-9.3v-3.271z"/></g><g fill="#fff" stroke-width="1pt"><path d="m789.275 340.035h47.543v3.271h-47.543zm7.089 16.358h3.271v3.177h-3.271zm40.577-.103v3.271h-9.5v-3.271zm5.111-16.255h3.272v19.532h-3.272z"/><path d="m860.978 356.29v3.271h-18.006v-3.271zm-33.538-7.642h3.272v10.92h-3.272z"/><path d="m858.3 340.035h3.272v19.532h-3.272zm-8.18 0h3.273v19.532h-3.272zm-43.404 7.774v3.271h-17.352v-3.271zm38.076 0v3.271h-17.352v-3.271z"/><path d="m827.44 348.648h3.272v10.92h-3.272z"/><path d="m827.44 348.648h3.272v10.92h-3.272z"/><path d="m827.44 348.648h3.272v10.92h-3.272zm-38.076 0h3.271v10.92h-3.271zm27.909 0h3.272v10.92h-3.272zm-13.827 0h3.272v10.92h-3.272z"/><path d="m819.569 356.29v3.271h-14.669v-3.271zm.976-8.481v3.271h-9.3v-3.271z"/></g><g fill="#fff" stroke-width="1pt"><path d="m320.405 340.035h47.543v3.271h-47.543zm7.089 16.358h3.271v3.177h-3.271zm40.577-.103v3.271h-9.5v-3.271zm5.111-16.255h3.272v19.532h-3.272z"/><path d="m392.108 356.29v3.271h-18.006v-3.271zm-33.538-7.642h3.272v10.92h-3.272z"/><path d="m389.43 340.035h3.272v19.532h-3.272zm-8.18 0h3.273v19.532h-3.272zm-43.404 7.774v3.271h-17.352v-3.271zm38.076 0v3.271h-17.352v-3.271z"/><path d="m358.57 348.648h3.272v10.92h-3.272z"/><path d="m358.57 348.648h3.272v10.92h-3.272z"/><path d="m358.57 348.648h3.272v10.92h-3.272zm-38.076 0h3.271v10.92h-3.271zm27.909 0h3.272v10.92h-3.272zm-13.827 0h3.272v10.92h-3.272z"/><path d="m350.699 356.29v3.271h-14.669v-3.271zm.976-8.481v3.271h-9.3v-3.271z"/></g><g fill="#fff" stroke-width="1pt"><path d="m398.625 340.035h47.543v3.271h-47.543zm7.089 16.358h3.271v3.177h-3.271zm40.577-.103v3.271h-9.5v-3.271zm5.111-16.255h3.272v19.532h-3.272z"/><path d="m470.328 356.29v3.271h-18.006v-3.271zm-33.538-7.642h3.272v10.92h-3.272z"/><path d="m467.65 340.035h3.272v19.532h-3.272zm-8.18 0h3.273v19.532h-3.272zm-43.404 7.774v3.271h-17.352v-3.271zm38.076 0v3.271h-17.352v-3.271z"/><path d="m436.79 348.648h3.272v10.92h-3.272z"/><path d="m436.79 348.648h3.272v10.92h-3.272z"/><path d="m436.79 348.648h3.272v10.92h-3.272zm-38.076 0h3.271v10.92h-3.271zm27.909 0h3.272v10.92h-3.272zm-13.827 0h3.272v10.92h-3.272z"/><path d="m428.919 356.29v3.271h-14.669v-3.271zm.976-8.481v3.271h-9.3v-3.271z"/></g><path d="m0 0h868.11v162.93h-868.11z" fill="#239f40"/><g stroke-width="1pt"><g fill="#fff"><path d="m477.305 340.035h47.543v3.271h-47.543zm7.089 16.358h3.271v3.177h-3.271zm40.577-.103v3.271h-9.5v-3.271zm5.111-16.255h3.272v19.532h-3.272z"/><path d="m549.008 356.29v3.271h-18.006v-3.271zm-33.538-7.642h3.272v10.92h-3.272z"/><path d="m546.33 340.035h3.272v19.532h-3.272zm-8.18 0h3.273v19.532h-3.272zm-43.404 7.774v3.271h-17.352v-3.271zm38.076 0v3.271h-17.352v-3.271z"/><path d="m515.47 348.648h3.272v10.92h-3.272z"/><path d="m515.47 348.648h3.272v10.92h-3.272z"/><path d="m515.47 348.648h3.272v10.92h-3.272zm-38.076 0h3.271v10.92h-3.271zm27.909 0h3.272v10.92h-3.272zm-13.827 0h3.272v10.92h-3.272z"/><path d="m507.599 356.29v3.271h-14.669v-3.271zm.976-8.481v3.271h-9.3v-3.271z"/></g><g fill="#fff"><path d="m555.535 340.035h47.543v3.271h-47.543zm7.089 16.358h3.271v3.177h-3.271zm40.577-.103v3.271h-9.5v-3.271zm5.111-16.255h3.272v19.532h-3.272z"/><path d="m627.238 356.29v3.271h-18.006v-3.271zm-33.538-7.642h3.272v10.92h-3.272z"/><path d="m624.56 340.035h3.272v19.532h-3.272zm-8.18 0h3.273v19.532h-3.272zm-43.404 7.774v3.271h-17.352v-3.271zm38.076 0v3.271h-17.352v-3.271z"/><path d="m593.7 348.648h3.272v10.92h-3.272z"/><path d="m593.7 348.648h3.272v10.92h-3.272z"/><path d="m593.7 348.648h3.272v10.92h-3.272zm-38.076 0h3.271v10.92h-3.271zm27.909 0h3.272v10.92h-3.272zm-13.827 0h3.272v10.92h-3.272z"/><path d="m585.829 356.29v3.271h-14.669v-3.271zm.976-8.481v3.271h-9.3v-3.271z"/></g><g fill="#fff"><path d="m633.755 340.035h47.543v3.271h-47.543zm7.089 16.358h3.271v3.177h-3.271zm40.577-.103v3.271h-9.5v-3.271zm5.111-16.255h3.272v19.532h-3.272z"/><path d="m705.458 356.29v3.271h-18.006v-3.271zm-33.538-7.642h3.272v10.92h-3.272z"/><path d="m702.78 340.035h3.272v19.532h-3.272zm-8.18 0h3.273v19.532h-3.273zm-43.404 7.774v3.271h-17.352v-3.271zm38.076 0v3.271h-17.352v-3.271z"/><path d="m671.92 348.648h3.272v10.92h-3.272z"/><path d="m671.92 348.648h3.272v10.92h-3.272z"/><path d="m671.92 348.648h3.272v10.92h-3.272zm-38.076 0h3.271v10.92h-3.271zm27.909 0h3.272v10.92h-3.272zm-13.827 0h3.272v10.92h-3.272z"/><path d="m664.049 356.29v3.271h-14.669v-3.271zm.976-8.481v3.271h-9.3v-3.271z"/></g><g fill="#fff"><path d="m712.435 340.035h47.543v3.271h-47.543zm7.089 16.358h3.271v3.177h-3.271zm40.577-.103v3.271h-9.5v-3.271zm5.111-16.255h3.272v19.532h-3.272z"/><path d="m784.138 356.29v3.271h-18.006v-3.271zm-33.538-7.642h3.272v10.92h-3.272z"/><path d="m781.46 340.035h3.272v19.532h-3.272zm-8.18 0h3.273v19.532h-3.272zm-43.404 7.774v3.271h-17.352v-3.271zm38.076 0v3.271h-17.352v-3.271z"/><path d="m750.6 348.648h3.272v10.92h-3.272z"/><path d="m750.6 348.648h3.272v10.92h-3.272z"/><path d="m750.6 348.648h3.272v10.92h-3.272zm-38.076 0h3.271v10.92h-3.271zm27.909 0h3.272v10.92h-3.272zm-13.827 0h3.272v10.92h-3.272z"/><path d="m742.729 356.29v3.271h-14.669v-3.271zm.976-8.481v3.271h-9.3v-3.271z"/></g><g fill="#fff"><path d="m7.92 340.035h47.542v3.271h-47.543zm7.088 16.358h3.271v3.177h-3.271zm40.577-.103v3.271h-9.5v-3.271zm5.111-16.255h3.272v19.532h-3.272z"/><path d="m79.622 356.29v3.271h-18.006v-3.271zm-33.538-7.642h3.272v10.92h-3.272z"/><path d="m76.944 340.035h3.272v19.532h-3.272zm-8.179 0h3.272v19.532h-3.272zm-43.405 7.774v3.271h-17.352v-3.271zm38.076 0v3.271h-17.352v-3.271z"/><path d="m46.084 348.648h3.272v10.92h-3.272z"/><path d="m46.084 348.648h3.272v10.92h-3.272z"/><path d="m46.084 348.648h3.272v10.92h-3.272zm-38.076 0h3.271v10.92h-3.271zm27.909 0h3.272v10.92h-3.272zm-13.827 0h3.272v10.92h-3.272z"/><path d="m38.213 356.29v3.271h-14.668v-3.271zm.976-8.481v3.271h-9.3v-3.271z"/></g><g fill="#fff"><path d="m165.025 138.975h47.543v3.271h-47.543zm7.089 16.358h3.271v3.177h-3.271zm40.577-.103v3.271h-9.5v-3.271zm5.111-16.255h3.272v19.532h-3.272z"/><path d="m236.728 155.23v3.271h-18.006v-3.271zm-33.538-7.642h3.272v10.92h-3.272z"/><path d="m234.05 138.975h3.272v19.532h-3.272zm-8.18 0h3.273v19.532h-3.272zm-43.404 7.774v3.271h-17.352v-3.271zm38.076 0v3.271h-17.352v-3.271z"/><path d="m203.19 147.588h3.272v10.92h-3.272z"/><path d="m203.19 147.588h3.272v10.92h-3.272z"/><path d="m203.19 147.588h3.272v10.92h-3.272zm-38.076 0h3.271v10.92h-3.271zm27.909 0h3.272v10.92h-3.272zm-13.827 0h3.272v10.92h-3.272z"/><path d="m195.319 155.23v3.271h-14.669v-3.271zm.976-8.481v3.271h-9.3v-3.271z"/></g><g fill="#fff"><path d="m86.94 138.975h47.543v3.271h-47.543zm7.089 16.358h3.271v3.177h-3.27zm40.577-.103v3.271h-9.5v-3.271zm5.111-16.255h3.272v19.532h-3.272z"/><path d="m158.643 155.23v3.271h-18.006v-3.271zm-33.538-7.642h3.272v10.92h-3.272z"/><path d="m155.965 138.975h3.272v19.532h-3.272zm-8.179 0h3.272v19.532h-3.272zm-43.405 7.774v3.271h-17.351v-3.271zm38.076 0v3.271h-17.352v-3.271z"/><path d="m125.105 147.588h3.272v10.92h-3.272z"/><path d="m125.105 147.588h3.272v10.92h-3.272z"/><path d="m125.105 147.588h3.272v10.92h-3.272zm-38.076 0h3.271v10.92h-3.27zm27.909 0h3.272v10.92h-3.272zm-13.828 0h3.273v10.92h-3.272z"/><path d="m117.234 155.23v3.271h-14.668v-3.271zm.976-8.481v3.271h-9.3v-3.271z"/></g><g fill="#fff"><path d="m242.465 138.975h47.543v3.271h-47.543zm7.089 16.358h3.271v3.177h-3.271zm40.577-.103v3.271h-9.5v-3.271zm5.111-16.255h3.272v19.532h-3.272z"/><path d="m314.168 155.23v3.271h-18.006v-3.271zm-33.538-7.642h3.272v10.92h-3.272z"/><path d="m311.49 138.975h3.272v19.532h-3.272zm-8.18 0h3.273v19.532h-3.272zm-43.404 7.774v3.271h-17.352v-3.271zm38.076 0v3.271h-17.352v-3.271z"/><path d="m280.63 147.588h3.272v10.92h-3.272z"/><path d="m280.63 147.588h3.272v10.92h-3.272z"/><path d="m280.63 147.588h3.272v10.92h-3.272zm-38.076 0h3.271v10.92h-3.271zm27.909 0h3.272v10.92h-3.272zm-13.827 0h3.272v10.92h-3.272z"/><path d="m272.759 155.23v3.271h-14.669v-3.271zm.976-8.481v3.271h-9.3v-3.271z"/></g><g fill="#fff"><path d="m789.275 138.975h47.543v3.271h-47.543zm7.089 16.358h3.271v3.177h-3.271zm40.577-.103v3.271h-9.5v-3.271zm5.111-16.255h3.272v19.532h-3.272z"/><path d="m860.978 155.23v3.271h-18.006v-3.271zm-33.538-7.642h3.272v10.92h-3.272z"/><path d="m858.3 138.975h3.272v19.532h-3.272zm-8.18 0h3.273v19.532h-3.272zm-43.404 7.774v3.271h-17.352v-3.271zm38.076 0v3.271h-17.352v-3.271z"/><path d="m827.44 147.588h3.272v10.92h-3.272z"/><path d="m827.44 147.588h3.272v10.92h-3.272z"/><path d="m827.44 147.588h3.272v10.92h-3.272zm-38.076 0h3.271v10.92h-3.271zm27.909 0h3.272v10.92h-3.272zm-13.827 0h3.272v10.92h-3.272z"/><path d="m819.569 155.23v3.271h-14.669v-3.271zm.976-8.481v3.271h-9.3v-3.271z"/></g><g fill="#fff"><path d="m320.405 138.975h47.543v3.271h-47.543zm7.089 16.358h3.271v3.177h-3.271zm40.577-.103v3.271h-9.5v-3.271zm5.111-16.255h3.272v19.532h-3.272z"/><path d="m392.108 155.23v3.271h-18.006v-3.271zm-33.538-7.642h3.272v10.92h-3.272z"/><path d="m389.43 138.975h3.272v19.532h-3.272zm-8.18 0h3.273v19.532h-3.272zm-43.404 7.774v3.271h-17.352v-3.271zm38.076 0v3.271h-17.352v-3.271z"/><path d="m358.57 147.588h3.272v10.92h-3.272z"/><path d="m358.57 147.588h3.272v10.92h-3.272z"/><path d="m358.57 147.588h3.272v10.92h-3.272zm-38.076 0h3.271v10.92h-3.271zm27.909 0h3.272v10.92h-3.272zm-13.827 0h3.272v10.92h-3.272z"/><path d="m350.699 155.23v3.271h-14.669v-3.271zm.976-8.481v3.271h-9.3v-3.271z"/></g><g fill="#fff"><path d="m398.625 138.975h47.543v3.271h-47.543zm7.089 16.358h3.271v3.177h-3.271zm40.577-.103v3.271h-9.5v-3.271zm5.111-16.255h3.272v19.532h-3.272z"/><path d="m470.328 155.23v3.271h-18.006v-3.271zm-33.538-7.642h3.272v10.92h-3.272z"/><path d="m467.65 138.975h3.272v19.532h-3.272zm-8.18 0h3.273v19.532h-3.272zm-43.404 7.774v3.271h-17.352v-3.271zm38.076 0v3.271h-17.352v-3.271z"/><path d="m436.79 147.588h3.272v10.92h-3.272z"/><path d="m436.79 147.588h3.272v10.92h-3.272z"/><path d="m436.79 147.588h3.272v10.92h-3.272zm-38.076 0h3.271v10.92h-3.271zm27.909 0h3.272v10.92h-3.272zm-13.827 0h3.272v10.92h-3.272z"/><path d="m428.919 155.23v3.271h-14.669v-3.271zm.976-8.481v3.271h-9.3v-3.271z"/></g><g fill="#fff"><path d="m477.305 138.975h47.543v3.271h-47.543zm7.089 16.358h3.271v3.177h-3.271zm40.577-.103v3.271h-9.5v-3.271zm5.111-16.255h3.272v19.532h-3.272z"/><path d="m549.008 155.23v3.271h-18.006v-3.271zm-33.538-7.642h3.272v10.92h-3.272z"/><path d="m546.33 138.975h3.272v19.532h-3.272zm-8.18 0h3.273v19.532h-3.272zm-43.404 7.774v3.271h-17.352v-3.271zm38.076 0v3.271h-17.352v-3.271z"/><path d="m515.47 147.588h3.272v10.92h-3.272z"/><path d="m515.47 147.588h3.272v10.92h-3.272z"/><path d="m515.47 147.588h3.272v10.92h-3.272zm-38.076 0h3.271v10.92h-3.271zm27.909 0h3.272v10.92h-3.272zm-13.827 0h3.272v10.92h-3.272z"/><path d="m507.599 155.23v3.271h-14.669v-3.271zm.976-8.481v3.271h-9.3v-3.271z"/></g><g fill="#fff"><path d="m555.535 138.975h47.543v3.271h-47.543zm7.089 16.358h3.271v3.177h-3.271zm40.577-.103v3.271h-9.5v-3.271zm5.111-16.255h3.272v19.532h-3.272z"/><path d="m627.238 155.23v3.271h-18.006v-3.271zm-33.538-7.642h3.272v10.92h-3.272z"/><path d="m624.56 138.975h3.272v19.532h-3.272zm-8.18 0h3.273v19.532h-3.272zm-43.404 7.774v3.271h-17.352v-3.271zm38.076 0v3.271h-17.352v-3.271z"/><path d="m593.7 147.588h3.272v10.92h-3.272z"/><path d="m593.7 147.588h3.272v10.92h-3.272z"/><path d="m593.7 147.588h3.272v10.92h-3.272zm-38.076 0h3.271v10.92h-3.271zm27.909 0h3.272v10.92h-3.272zm-13.827 0h3.272v10.92h-3.272z"/><path d="m585.829 155.23v3.271h-14.669v-3.271zm.976-8.481v3.271h-9.3v-3.271z"/></g><g fill="#fff"><path d="m633.755 138.975h47.543v3.271h-47.543zm7.089 16.358h3.271v3.177h-3.271zm40.577-.103v3.271h-9.5v-3.271zm5.111-16.255h3.272v19.532h-3.272z"/><path d="m705.458 155.23v3.271h-18.006v-3.271zm-33.538-7.642h3.272v10.92h-3.272z"/><path d="m702.78 138.975h3.272v19.532h-3.272zm-8.18 0h3.273v19.532h-3.273zm-43.404 7.774v3.271h-17.352v-3.271zm38.076 0v3.271h-17.352v-3.271z"/><path d="m671.92 147.588h3.272v10.92h-3.272z"/><path d="m671.92 147.588h3.272v10.92h-3.272z"/><path d="m671.92 147.588h3.272v10.92h-3.272zm-38.076 0h3.271v10.92h-3.271zm27.909 0h3.272v10.92h-3.272zm-13.827 0h3.272v10.92h-3.272z"/><path d="m664.049 155.23v3.271h-14.669v-3.271zm.976-8.481v3.271h-9.3v-3.271z"/></g><g fill="#fff"><path d="m712.435 138.975h47.543v3.271h-47.543zm7.089 16.358h3.271v3.177h-3.271zm40.577-.103v3.271h-9.5v-3.271zm5.111-16.255h3.272v19.532h-3.272z"/><path d="m784.138 155.23v3.271h-18.006v-3.271zm-33.538-7.642h3.272v10.92h-3.272z"/><path d="m781.46 138.975h3.272v19.532h-3.272zm-8.18 0h3.273v19.532h-3.272zm-43.404 7.774v3.271h-17.352v-3.271zm38.076 0v3.271h-17.352v-3.271z"/><path d="m750.6 147.588h3.272v10.92h-3.272z"/><path d="m750.6 147.588h3.272v10.92h-3.272z"/><path d="m750.6 147.588h3.272v10.92h-3.272zm-38.076 0h3.271v10.92h-3.271zm27.909 0h3.272v10.92h-3.272zm-13.827 0h3.272v10.92h-3.272z"/><path d="m742.729 155.23v3.271h-14.669v-3.271zm.976-8.481v3.271h-9.3v-3.271z"/></g><g fill="#fff"><path d="m7.92 138.975h47.542v3.271h-47.543zm7.088 16.358h3.271v3.177h-3.271zm40.577-.103v3.271h-9.5v-3.271zm5.111-16.255h3.272v19.532h-3.272z"/><path d="m79.622 155.23v3.271h-18.006v-3.271zm-33.538-7.642h3.272v10.92h-3.272z"/><path d="m76.944 138.975h3.272v19.532h-3.272zm-8.179 0h3.272v19.532h-3.272zm-43.405 7.774v3.271h-17.352v-3.271zm38.076 0v3.271h-17.352v-3.271z"/><path d="m46.084 147.588h3.272v10.92h-3.272z"/><path d="m46.084 147.588h3.272v10.92h-3.272z"/><path d="m46.084 147.588h3.272v10.92h-3.272zm-38.076 0h3.271v10.92h-3.271zm27.909 0h3.272v10.92h-3.272zm-13.827 0h3.272v10.92h-3.272z"/><path d="m38.213 155.23v3.271h-14.668v-3.271zm.976-8.481v3.271h-9.3v-3.271z"/></g><path d="m119.3 328.94h5.86v10.178h-5.86zm155.54 0h5.86v10.178h-5.86zm-274.882 0h5.86v10.178h-5.86zm78.941 0h5.86v10.178h-5.86zm78.379 0h5.86v10.178h-5.86zm38.78 0h5.86v10.178h-5.86zm39.59 0h5.86v10.178h-5.86zm77.972 0h5.86v10.178h-5.86zm196.74 0h5.86v10.178h-5.86zm-157.152 0h5.86v10.178h-5.86zm38.79 0h5.86v10.178h-5.86zm39.18 0h5.86v10.178h-5.86zm39.19 0h5.86v10.178h-5.86zm313.092 0h5.86v10.178h-5.86zm-235.122 0h5.86v10.178h-5.86zm39.59 0h5.86v10.178h-5.86zm40 0h5.86v10.178h-5.86zm37.57 0h5.86v10.178h-5.86zm39.99 0h5.86v10.178h-5.86zm39.19 0h5.86v10.178h-5.86zm115.952 0h5.86v10.178h-5.86zm-37.572 0h5.86v10.178h-5.86zm-783.75 0h5.86v10.178h-5.86z" fill="#d90000"/><path d="m119.3 157.55h5.86v10.178h-5.86zm155.54 0h5.86v10.178h-5.86zm-274.882 0h5.86v10.178h-5.86zm78.941 0h5.86v10.178h-5.86zm78.379 0h5.86v10.178h-5.86zm38.78 0h5.86v10.178h-5.86zm39.59 0h5.86v10.178h-5.86zm77.972 0h5.86v10.178h-5.86zm196.74 0h5.86v10.178h-5.86zm-157.152 0h5.86v10.178h-5.86zm38.79 0h5.86v10.178h-5.86zm39.18 0h5.86v10.178h-5.86zm39.19 0h5.86v10.178h-5.86zm313.092 0h5.86v10.178h-5.86zm-235.122 0h5.86v10.178h-5.86zm39.59 0h5.86v10.178h-5.86zm40 0h5.86v10.178h-5.86zm37.57 0h5.86v10.178h-5.86zm39.99 0h5.86v10.178h-5.86zm39.19 0h5.86v10.178h-5.86zm115.952 0h5.86v10.178h-5.86zm-37.572 0h5.86v10.178h-5.86zm-783.75 0h5.86v10.178h-5.86z" fill="#239e3f"/></g><g fill="#da0000"><path d="m457.079 191.36c8.19 10.039 33.438 65.548-15.241 101.91-22.884 17.223-8.714 18.093-8.037 20.988 36.785-19.539 48.799-46.013 48.52-69.727-.28-23.715-12.853-44.669-25.242-53.167z"/><path d="m461.949 188.78c18.166 9.301 57.701 56.079 15.149 108.85 26.439-5.868 60.053-83.729-15.149-108.85zm-55.79 0c-18.166 9.301-57.701 56.079-15.149 108.85-26.439-5.868-60.053-83.729 15.149-108.85z"/><path d="m410.959 191.36c-8.19 10.039-33.438 65.548 15.241 101.91 22.884 17.223 8.714 18.093 8.037 20.988-36.785-19.539-48.799-46.013-48.52-69.727.28-23.715 12.853-44.669 25.242-53.167z"/><path d="m480.719 309.2c-14.398.228-32.549-1.984-46.01-8.979 2.217 4.311 4.059 7.026 6.276 11.337 12.838 1.184 30.554 2.649 39.734-2.358zm-92.02 0c14.398.228 32.549-1.984 46.01-8.979-2.217 4.311-4.059 7.026-6.276 11.337-12.838 1.184-30.554 2.649-39.734-2.358zm26.41-134.4c2.917 7.753 10.57 8.88 18.762 4.315 5.97 3.582 15.202 3.809 18.386-3.94 2.421 19.169-17.736 14.634-18.487 10.882-7.504 7.254-21.475 3.064-18.661-11.257z"/><path d="m434.409 321.27 7.57-8.652 1.082-116.44-9.012-7.931-9.012 7.57 1.802 117.16 7.57 8.291z"/></g></g></svg>