<svg height="512" viewBox="0 0 512 512" width="512" xmlns="http://www.w3.org/2000/svg"><g fill-rule="evenodd"><path d="m0 0h512v512h-512z" fill="#f31930"/><path d="m348.772 263.97c0 70.63-58.247 127.883-130.1 127.883s-130.1-57.253-130.1-127.883 58.247-127.88 130.1-127.88 130.1 57.254 130.1 127.88z" fill="#fff"/><path d="m355.28 263.965c0 56.5-46.6 102.304-104.08 102.304s-104.08-45.804-104.08-102.305 46.598-102.303 104.08-102.303 104.08 45.803 104.08 102.303z" fill="#f31830"/><path d="m374.104 204.23-1.05 47.272-44.103 11.973 43.474 15.482-1.05 43.35 28.352-33.853 42.842 14.863-24.782-36.332 30.242-36.125-46.413 12.798z" fill="#fff"/></g></svg>