<svg fill="none" height="108" viewBox="0 0 158 108" width="158" xmlns="http://www.w3.org/2000/svg"><g fill="#000"><path clip-rule="evenodd" d="m10 0h138c5.523 0 10 4.47715 10 10v88c0 5.523-4.477 10-10 10h-138c-5.52284 0-10-4.477-10-10v-88c0-5.52285 4.47715-10 10-10zm0 4c-3.31371 0-6 2.68629-6 6v88c0 3.314 2.6863 6 6 6h138c3.314 0 6-2.686 6-6v-88c0-3.31371-2.686-6-6-6z" fill-rule="evenodd"/><path d="m123 50h31v4h-31z"/><path d="m4 50h84v4h-84z"/><path d="m88 104v-100h4v100z"/><path d="m119 104v-100h4v100z"/></g></svg>