<svg height="201.22852mm" viewBox="0 0 201.22852 201.22851" width="201.22852mm" xmlns="http://www.w3.org/2000/svg"><g transform="translate(295.65791 -75.71863)"><circle cx="-195.04366" cy="176.33289" fill-rule="evenodd" r="100.396" stroke="#000" stroke-width=".436504"/><path d="m-239.53885 119.11949-6.73099 6.731 8.51601 8.516 8.5346 8.516-.70657 2.08252c-.9111 2.7333-1.28298 5.02035-1.28298 8.05116 0 9.87335 5.1691 18.2778 14.3173 23.27955 3.68159 2.00814 10.00352 4.2766 17.01341 6.08021 13.68511 3.51424 15.78622 4.12784 18.48233 5.39223 3.6816 1.74782 5.5038 3.6444 6.26615 6.50786.33469 1.24579.31609 4.03488-.0186 5.37364-.85532 3.25393-3.62581 6.52645-7.06568 8.31146-4.64848 2.43581-12.73682 3.10519-18.83562 1.5433-2.26845-.55781-5.4852-2.1383-7.10286-3.45847-3.29113-2.7147-5.85708-7.40036-6.99131-12.81119-.18594-.85532-.33469-1.58048-.35329-1.61767-.0558-.0744-19.09593 1.78501-19.1889 1.89658-.0744.0558-.0186.83672.11157 1.72923.595 4.29519 2.10111 9.40851 3.83034 12.95995l1.00407 2.06392-8.27428 8.27428-8.2557 8.27429 6.74959 6.74958 6.73099 6.73099 8.5346-8.5346 8.516-8.516 1.46892.6136c7.77225 3.27252 19.43062 4.29519 30.73571 2.65893 2.71471-.39048 6.63802-1.32017 8.70194-2.08252l1.2272-.44625 8.16272 8.16271 8.14413 8.14413 6.73099-6.73099 6.74958-6.74958-7.56771-7.56772-7.54913-7.54912.94829-1.93376c1.97096-3.96051 2.78909-7.326 2.95643-11.95588.29751-8.8321-1.98954-15.48871-7.19584-20.97391-5.42941-5.70833-11.5468-8.42304-28.82053-12.77401-12.179-3.0494-17.42248-5.15051-19.505-7.79084-2.06392-2.60315-2.24986-6.24755-.44625-8.90648 1.04125-1.54329 3.60722-3.19815 6.3963-4.12784 3.14237-1.05985 8.42303-1.54329 12.34634-1.13423 8.27429.87391 12.43932 4.40675 14.26152 12.14182.22313.94828.42766 1.74782.44626 1.78501.0372.0558 13.49916-.42766 17.53404-.63219l2.30564-.11157-.13016-1.61767c-.26031-3.29111-.9111-6.22895-2.10111-9.29694l-.65078-1.72924 8.38584-8.40444 8.38585-8.38584-6.73099-6.74959-6.74958-6.73099-8.47882 8.47882-8.49741 8.49741-2.06392-.78094c-5.07614-1.89658-9.98492-2.73331-17.21795-2.93784-7.9024-.20453-14.83792.81813-20.15578 2.97502l-1.97095.79954-8.5532-8.51601-8.55319-8.516z" fill="#fff"/></g></svg>