<svg fill="none" height="96" viewBox="0 0 96 96" width="96" xmlns="http://www.w3.org/2000/svg"><circle cx="48" cy="48" fill="#000" r="48"/><path d="m30.4342 34.9106c9.7013-9.6464 25.4302-9.6464 35.1316 0l8.3801 8.3327-8.3801 8.3327c-9.7013 9.6465-25.4303 9.6465-35.1316 0l-8.3801-8.3327z" fill="#000"/><path clip-rule="evenodd" d="m16 43.2569 19.027-19.0401h25.9459l19.027 19.0401-32 31.9868zm46.7026-6.9324c-8.0845-8.1199-21.3209-8.1199-29.4054.0001l-6.9189 6.919 6.9189 6.9189c8.0845 8.1199 21.3209 8.1199 29.4054 0l6.9189-6.9189z" fill="#0ce466" fill-rule="evenodd"/><path d="m47.9999 49.2975c-3.3422 0-6.054-2.7091-6.054-6.054s2.7118-6.054 6.054-6.054 6.0541 2.7091 6.0541 6.054-2.7119 6.054-6.0541 6.054z" fill="#000"/><path clip-rule="evenodd" d="m38.0541 43.2428c0 5.4952 4.4552 9.9459 9.9459 9.9459s9.9459-4.4507 9.9459-9.9459-4.4552-9.9459-9.9459-9.9459-9.9459 4.4507-9.9459 9.9459zm5.6216 0c0 2.3892 1.937 4.3243 4.3243 4.3243 2.3872 0 4.3243-1.9351 4.3243-4.3243s-1.9371-4.3243-4.3243-4.3243c-2.3873 0-4.3243 1.9351-4.3243 4.3243z" fill="#fff" fill-rule="evenodd"/></svg>