<svg height="2344" viewBox="0 0 954 894.4" width="2500" xmlns="http://www.w3.org/2000/svg"><g fill="#f93"><path d="m0 0c52.7.1 105.3.1 158 0 33.3 172.6 66.5 345.1 99.7 517.7 1.5 7.6 3.5 15.2 5.5 22.7 7.8-30.1 12.7-60.9 19.3-91.2 30.3-149.7 60.6-299.4 90.9-449.2h152.8c-56.1 242.4-112.2 484.7-168.3 727h-189.7c-56.1-242.2-112.2-484.3-168.2-726.5zm587.4 228.4c33.2-40.5 86.4-58.9 137.6-62.2 50.5-3.5 105 1 147.9 30.3 37.9 25.8 58.7 69.3 68.6 112.6 12 54.2 12.6 110 12.5 165.3h-280c.2 40.9-2.4 83 11.7 122.2 6.8 19.3 19.5 38.4 39.8 45.5 21.5 6.8 47.5 2.4 63.2-14.5 21-23 25.4-55.4 30-85h127.1c-2.9 49.1-12.2 100.9-45.3 139.5-33.2 40.1-86.7 56.5-137.4 58.5-55 2-114.8-5.2-158.7-41.2-40.8-33-58.6-85.4-65.6-135.5-7.1-57.8-7.4-116.2-4.1-174.2 4.3-56.6 14.9-116.5 52.7-161.3zm108.5 57.7c-21.7 30.3-22.2 69.3-21.9 104.9h144.6c-2.2-33.9-2-69.8-17.7-100.9-19.6-38.3-81.4-38.4-105-4z"/><path d="m84 789.9c-16.7 0-30.2 13.2-30.2 29.4v45.7c0 16.2 13.5 29.4 30.2 29.4h47c5.6 0 10.1-4.4 10.1-9.8s-4.5-9.8-10.1-9.8h-47c-5.6 0-10.1-4.4-10.1-9.8v-45.7c0-5.4 4.5-9.8 10.1-9.8h110.9c5.6 0 10.1 4.4 10.1 9.8v29.4c0 5.4 4.5 9.8 10.1 9.8s10.1-4.4 10.1-9.8v-29.4c0-16.2-13.5-29.4-30.2-29.4z"/><path d="m883.5 894.4c16.7 0 30.2-13.2 30.2-29.4v-45.7c0-16.2-13.5-29.4-30.2-29.4h-47c-5.6 0-10.1 4.4-10.1 9.8s4.5 9.8 10.1 9.8h47c5.6 0 10.1 4.4 10.1 9.8v45.7c0 5.4-4.5 9.8-10.1 9.8h-110.9c-5.6 0-10.1-4.4-10.1-9.8v-29.4c0-5.4-4.5-9.8-10.1-9.8s-10.1 4.4-10.1 9.8v29.4c0 16.2 13.5 29.4 30.2 29.4z"/><path d="m282.2 789.9c-16.7 0-30.2 13.2-30.2 29.4v29.4c0 5.4 4.5 9.8 10.1 9.8s10.1-4.4 10.1-9.8v-29.4c0-5.4 4.5-9.8 10.1-9.8h110.7c5.6 0 10.1 4.4 10.1 9.8v29.4c0 5.4 4.5 9.8 10.1 9.8s10.1-4.4 10.1-9.8v-29.4c0-16.2-13.5-29.4-30.2-29.4z"/><path d="m292.2 894.4c16.7 0 30.2-13.2 30.2-29.4v-29.4c0-5.4-4.5-9.8-10.1-9.8s-10.1 4.4-10.1 9.8v29.4c0 5.4-4.5 9.8-10.1 9.8h-110.7c-5.6 0-10.1-4.4-10.1-9.8v-29.4c0-5.4-4.5-9.8-10.1-9.8s-10.1 4.4-10.1 9.8v29.4c0 16.2 13.5 29.4 30.2 29.4z"/><path d="m490.4 894.4c16.7 0 30.2-13.2 30.2-29.4v-29.4c0-5.4-4.5-9.8-10.1-9.8s-10.1 4.4-10.1 9.8v29.4c0 5.4-4.5 9.8-10.1 9.8h-110.7c-5.6 0-10.1-4.4-10.1-9.8v-29.4c0-5.4-4.5-9.8-10.1-9.8s-10.1 4.4-10.1 9.8v29.4c0 16.2 13.5 29.4 30.2 29.4z"/><path d="m685.3 894.4c16.7 0 30.2-13.2 30.2-29.4v-29.4c0-5.4-4.5-9.8-10.1-9.8s-10.1 4.4-10.1 9.8v29.4c0 5.4-4.5 9.8-10.1 9.8h-110.8c-5.6 0-10.1-4.4-10.1-9.8v-29.4c0-5.4-4.5-9.8-10.1-9.8s-10.1 4.4-10.1 9.8v29.4c0 16.2 13.5 29.4 30.2 29.4z"/><path d="m477 789.9c-16.7 0-30.2 13.2-30.2 29.4v29.4c0 5.4 4.5 9.8 10.1 9.8s10.1-4.4 10.1-9.8v-29.4c0-5.4 4.5-9.8 10.1-9.8h110.9c5.6 0 10.1 4.4 10.1 9.8v29.4c0 5.4 4.5 9.8 10.1 9.8s10.1-4.4 10.1-9.8v-29.4c0-16.2-13.5-29.4-30.2-29.4z"/><path d="m675.2 789.9c-16.7 0-30.2 13.2-30.2 29.4v29.4c0 5.4 4.5 9.8 10.1 9.8s10.1-4.4 10.1-9.8v-29.4c0-5.4 4.5-9.8 10.1-9.8h110.7c5.6 0 10.1 4.4 10.1 9.8v29.4c0 5.4 4.5 9.8 10.1 9.8s10.1-4.4 10.1-9.8v-29.4c0-16.2-13.5-29.4-30.2-29.4z"/></g></svg>