<svg fill="none" height="12" viewBox="0 0 13 12" width="13" xmlns="http://www.w3.org/2000/svg"><path d="m1.5 2.5c0-.27614.22386-.5.5-.5h1c.27614 0 .5.22386.5.5v2.5c0 .27614-.22386.5-.5.5h-1c-.27614 0-.5-.22386-.5-.5z" fill="#e83681"/><rect fill="#74de9f" height="3.5" rx="1" width="2" x="1.5" y="6"/><path d="m1.5 6.5c0-.27614.22386-.5.5-.5h1c.27614 0 .5.22386.5.5v2.5c0 .27614-.22386.5-.5.5h-1c-.27614 0-.5-.22386-.5-.5z" fill="#74de9f"/><g fill="#fff" fill-opacity=".32"><path d="m4 2h7.5v.5h-7.5z"/><path d="m4 3h7.5v.5h-7.5z"/><path d="m4 4h7.5v.5h-7.5z"/><path d="m4 5h7.5v.5h-7.5z"/><path d="m4 6h7.5v.5h-7.5z"/><path d="m4 7h7.5v.5h-7.5z"/><path d="m4 8h7.5v.5h-7.5z"/><path d="m4 9h7.5v.5h-7.5z"/></g></svg>