<svg fill="none" height="12" viewBox="0 0 13 12" width="13" xmlns="http://www.w3.org/2000/svg"><path d="m1.5 2.5c0-.27614.22386-.5.5-.5h1c.27614 0 .5.22386.5.5v5.5c0 .27614-.22386.5-.5.5h-1c-.27614 0-.5-.22386-.5-.5z" fill="#e83681"/><g fill="#fff" fill-opacity=".32"><path d="m4 2h7.5v.5h-7.5z"/><path d="m4 3h7.5v.5h-7.5z"/><path d="m4 4h7.5v.5h-7.5z"/><path d="m4 5h7.5v.5h-7.5z"/><path d="m4 6h7.5v.5h-7.5z"/><path d="m4 7h7.5v.5h-7.5z"/><path d="m4 8h7.5v.5h-7.5z"/><path d="m1.5 9h10v.5h-10z"/></g></svg>